<svg id="_x33_0" enable-background="new 0 0 62 62" height="512" viewBox="0 0 62 62" width="512" xmlns="http://www.w3.org/2000/svg"><g><g><g><path d="m20 31h3v3.06c-2.46 2.19-4 5.39-4 8.94 0 6.63 5.37 12 12 12s12-5.37 12-12c0-3.55-1.54-6.75-4-8.94v-3.06h5.46l2.8 2.81-.77.78c-1.26 1.26-.37 3.41 1.41 3.41h1.1v10h-1.1c-1.78 0-2.67 2.15-1.41 3.41l.77.78-7.07 7.07-.78-.77c-1.26-1.26-3.41-.37-3.41 1.41v1.1h-10v-1.1c0-1.78-2.15-2.67-3.41-1.41l-.78.77-7.07-7.07.77-.78c1.26-1.26.37-3.41-1.41-3.41h-1.1v-10h1.1c1.78 0 2.67-2.15 1.41-3.41l-.77-.78 2.8-2.81z" fill="#fcd770"/></g><g><path d="m39 34.06v8.24c0 .24-.04.48-.13.7h-7.87v-6c.6 0 1.13-.38 1.32-.95l1.68-5.05h1 4z" fill="#b4dd7f"/></g><g><path d="m31 37v6h-7.87c-.09-.22-.13-.46-.13-.7v-8.24-3.06h4 1l1.68 5.05c.19.57.72.95 1.32.95z" fill="#ff826e"/></g><g><path d="m31 43h7.87c-.07.2-.17.38-.31.55l-7.56 9.45-7.56-9.45c-.14-.17-.24-.35-.31-.55z" fill="#ccd1d9"/></g><g><path d="m54.59 9h4.41c1.1 0 2 .9 2 2v18c0 1.1-.9 2-2 2h-6l-.47-1.17c-.48-1.21-1.23-2.25-2.18-3.08-.08-.07-.16-.14-.24-.2 2.96-1.46 4.89-4.5 4.89-7.87v-6.68c0-1.04-.14-2.05-.42-3z" fill="#e6e9ed"/></g><g><path d="m37.89 26.55c-.08.06-.16.13-.24.2-.95.83-1.7 1.87-2.18 3.08l-.47 1.17h-1l-1.68 5.05c-.19.57-.72.95-1.32.95s-1.13-.38-1.32-.95l-1.68-5.05h-1l-.47-1.17c-.48-1.21-1.23-2.25-2.18-3.08s-2.09-1.43-3.35-1.75l-.79-2.36c2.48-.82 4.34-2.99 4.71-5.64h.01 2.07c.55 0 1.05-.22 1.41-.59.37-.36.59-.86.59-1.41 0-1.1-.9-2-2-2l1.45-2.18c.36-.53.55-1.16.55-1.81v-.01h4.42c-.28.95-.42 1.96-.42 3v6.68c0 3.37 1.93 6.41 4.89 7.87z" fill="#e6e9ed"/></g><g><path d="m15.79 22.64-.79 2.36c-1.26.32-2.4.92-3.35 1.75s-1.7 1.87-2.18 3.08l-.47 1.17h-6c-1.1 0-2-.9-2-2v-18c0-1.1.9-2 2-2h4.18c.11.47.28.93.5 1.37l1.32 2.63c-1.1 0-2 .9-2 2 0 .55.22 1.05.59 1.41.36.37.86.59 1.41.59h2.07.01c.21 1.54.92 2.9 1.97 3.95.76.76 1.69 1.35 2.74 1.69z" fill="#e6e9ed"/></g><g><path d="m55 12v6.68c0 3.37-1.93 6.41-4.89 7.87-.9-.73-1.95-1.26-3.11-1.55l-.79-2.36c2.79-.92 4.79-3.54 4.79-6.64v-3.7c0-.79-.47-1.51-1.19-1.83l-7.81-3.47-4.25 3.4c-.47.38-.75.95-.75 1.56v4.04c0 1.94.78 3.68 2.05 4.95.76.76 1.69 1.35 2.74 1.69l-.79 2.36c-1.16.29-2.21.82-3.11 1.55-2.96-1.46-4.89-4.5-4.89-7.87v-6.68c0-1.04.14-2.05.42-3 1.3-4.62 5.54-8 10.58-8 3.04 0 5.79 1.23 7.78 3.22 1.31 1.31 2.29 2.95 2.8 4.78.28.95.42 1.96.42 3z" fill="#656d78"/></g><g><path d="m22.93 7.62c-.2.8-.92 1.38-1.78 1.38h-8.15c-1.1 0-2 .9-2 2v2h-2l-1.32-2.63c-.22-.44-.39-.9-.5-1.37-.12-.5-.18-1.01-.18-1.53 0-3.57 2.9-6.47 6.47-6.47h13.06c.68 0 1.3.28 1.75.72.44.45.72 1.07.72 1.75 0 .94-.53 1.79-1.37 2.21l-.63.32.2.1c1.1.55 1.8 1.67 1.8 2.9v.01c0 .65-.19 1.28-.55 1.81l-1.45 2.18h-2v-2.93c0-.67-.33-1.29-.89-1.66l-1.17-.79z" fill="#b27946"/></g><g><path d="m21 25c1.26.32 2.4.92 3.35 1.75s1.7 1.87 2.18 3.08l.47 1.17h-4-3l-1-4z" fill="#b4dd7f"/></g><g><path d="m17 27-1 4h-7l.47-1.17c.48-1.21 1.23-2.25 2.18-3.08s2.09-1.43 3.35-1.75z" fill="#b4dd7f"/></g><g><path d="m19 27 1 4h-2.46-1.54l1-4z" fill="#ff826e"/></g><g><path d="m44.46 31h-5.46-4l.47-1.17c.48-1.21 1.23-2.25 2.18-3.08.08-.07.16-.14.24-.2.9-.73 1.95-1.26 3.11-1.55l.11.32c.58 1.76 1.57 3.36 2.89 4.68 1.32-1.32 2.31-2.92 2.89-4.68l.11-.32c1.16.29 2.21.82 3.11 1.55.08.06.16.13.24.2.95.83 1.7 1.87 2.18 3.08l.47 1.17z" fill="#ff826e"/></g><g><path d="m41 25 .79-2.36 2.21.36c.78 0 1.52-.12 2.21-.36l.79 2.36-.11.32c-.58 1.76-1.57 3.36-2.89 4.68-1.32-1.32-2.31-2.92-2.89-4.68z" fill="#f0d0b4"/></g><g><path d="m51 12.3v3.7c0 3.1-2 5.72-4.79 6.64-.69.24-1.43.36-2.21.36l-2.21-.36c-1.05-.34-1.98-.93-2.74-1.69-1.27-1.27-2.05-3.01-2.05-4.95v-4.04c0-.61.28-1.18.75-1.56l4.25-3.4 7.81 3.47c.72.32 1.19 1.04 1.19 1.83z" fill="#f0d0b4"/></g><g><path d="m27 13c1.1 0 2 .9 2 2 0 .55-.22 1.05-.59 1.41-.36.37-.86.59-1.41.59h-2.07-.01c.06-.33.08-.66.08-1v-3z" fill="#f0d0b4"/></g><g><path d="m15.79 22.64 2.21.36c.78 0 1.52-.12 2.21-.36l.79 2.36-2 2h-2l-2-2z" fill="#f0d0b4"/></g><g><path d="m21.15 9c.86 0 1.58-.58 1.78-1.38h.01l1.17.79c.56.37.89.99.89 1.66v2.93 3c0 .34-.02.67-.08 1-.37 2.65-2.23 4.82-4.71 5.64-.69.24-1.43.36-2.21.36l-2.21-.36c-1.05-.34-1.98-.93-2.74-1.69-1.05-1.05-1.76-2.41-1.97-3.95-.06-.33-.08-.66-.08-1v-3-2c0-1.1.9-2 2-2z" fill="#f0d0b4"/></g><g><path d="m11 16c0 .34.02.67.08 1h-.01-2.07c-.55 0-1.05-.22-1.41-.59-.37-.36-.59-.86-.59-1.41 0-1.1.9-2 2-2h2z" fill="#f0d0b4"/></g></g><g><g><circle cx="15" cy="13" fill="#fff" r=".5"/></g><g><circle cx="21" cy="13" fill="#fff" r=".5"/></g><g><circle cx="41" cy="13" fill="#fff" r=".5"/></g><g><circle cx="47" cy="13" fill="#fff" r=".5"/></g><g><circle cx="15" cy="13" r="1"/><circle cx="21" cy="13" r="1"/><path d="m20 16.764c-.381.762-1.147 1.236-2 1.236s-1.619-.474-2-1.236l-.105-.211-1.789.895.105.211c.722 1.444 2.174 2.341 3.789 2.341s3.067-.897 3.789-2.342l.105-.211-1.789-.895z"/><path d="m59 8h-3.7c-1.653-4.653-6.087-8-11.3-8s-9.647 3.347-11.3 8h-2.835c-.176-.725-.525-1.39-1.037-1.925.738-.648 1.172-1.587 1.172-2.603 0-1.914-1.558-3.472-3.472-3.472h-13.056c-4.12 0-7.472 3.352-7.472 7.472 0 .176.018.352.031.528h-3.031c-1.654 0-3 1.346-3 3v18c0 1.654 1.346 3 3 3h12.13l-1.808 1.808 1.485 1.485c.438.438.276.945.217 1.09-.06.144-.303.617-.923.617h-2.101v12h2.101c.62 0 .863.473.924.617.06.145.222.651-.217 1.09l-1.485 1.485 8.485 8.485 1.485-1.485c.439-.437.945-.277 1.09-.217.144.06.617.304.617.924v2.101h12v-2.101c0-.62.473-.864.617-.924.145-.061.65-.222 1.09.217l1.485 1.485 8.485-8.485-1.485-1.485c-.438-.438-.276-.945-.217-1.09.061-.144.304-.617.924-.617h2.101v-12h-2.101c-.62 0-.863-.473-.924-.617-.06-.145-.222-.651.217-1.09l1.485-1.485-1.807-1.808h12.13c1.654 0 3-1.346 3-3v-18c0-1.654-1.346-3-3-3zm-25 4c0-5.514 4.486-10 10-10s10 4.486 10 10v6.676c0 2.745-1.497 5.299-3.84 6.683-.728-.5-1.523-.905-2.378-1.176l-.326-.978c2.683-1.293 4.544-4.032 4.544-7.205v-3.7c0-1.184-.699-2.26-1.781-2.742l-8.368-3.719-4.725 3.78c-.716.572-1.126 1.426-1.126 2.342v4.039c0 3.173 1.861 5.912 4.545 7.204l-.326.978c-.855.271-1.651.676-2.378 1.176-2.344-1.383-3.841-3.937-3.841-6.682zm-16 10c-3.309 0-6-2.691-6-6v-5c0-.552.448-1 1-1h8.146c.844 0 1.603-.367 2.125-.951l.284.189c.279.186.445.497.445.832v5.93c0 3.309-2.691 6-6 6zm0 2c.534 0 1.056-.055 1.561-.155l.295.885-1.27 1.27h-1.172l-1.27-1.27.295-.885c.505.1 1.027.155 1.561.155zm-3.28 2.134 1.173 1.173-.673 2.693h-4.728c.799-1.83 2.343-3.234 4.228-3.866zm2.56 3.866.5-2h.439l.5 2zm3.5 0-.673-2.693 1.173-1.173c1.885.632 3.429 2.036 4.229 3.866zm6.499 2 1.456 4.369c.214.639.68 1.136 1.265 1.406v4.225h-6v-10zm1.001 16h5.439l-2.719 3.399zm7.039-2h-8.639l-1.6-2h11.838zm-12.662-1.827 7.842 9.802c-5.832-.265-10.499-5.079-10.499-10.975 0-2.275.716-4.472 2-6.307v5.606c0 .68.233 1.345.657 1.874zm16.685 0c.425-.529.658-1.194.658-1.874v-5.607c1.284 1.835 2 4.033 2 6.308 0 5.896-4.667 10.71-10.499 10.975zm-1.342-2.173h-6v-4.225c.584-.27 1.051-.767 1.265-1.407l1.456-4.368h3.279zm-1.509-12c.755-1.726 2.167-3.081 3.908-3.759.536 1.37 1.303 2.644 2.265 3.759zm7.509-8c-3.309 0-6-2.691-6-6v-4.039c0-.305.137-.59.376-.78l3.773-3.02 7.257 3.224c.361.161.594.52.594.915v3.7c0 3.309-2.691 6-6 6zm0 2c.534 0 1.056-.055 1.561-.155l.385 1.154v.001c-.425 1.276-1.09 2.474-1.945 3.514-.855-1.04-1.52-2.237-1.946-3.513l.385-1.156c.504.1 1.026.155 1.56.155zm3.6 2.24c1.741.678 3.154 2.033 3.909 3.76h-6.173c.961-1.115 1.728-2.389 2.264-3.76zm-18.315-14.865c.281-.422.472-.889.588-1.375h2.307c-.109.652-.18 1.317-.18 2v6.676c0 3.227 1.634 6.259 4.254 8.063-.719.791-1.308 1.704-1.714 2.718l-.217.543h-1.044l-1.911 5.734c-.107.318-.629.317-.736.001l-1.911-5.735h-1.044l-.217-.543c-1.009-2.521-3.107-4.459-5.679-5.274l-.326-.978c2.099-1.011 3.687-2.907 4.282-5.204h1.263c1.654 0 3-1.346 3-3 0-1.079-.577-2.018-1.434-2.547zm-3.285 2.625h1c.552 0 1 .448 1 1s-.448 1-1 1h-1zm-12.528-12h13.057c.811 0 1.471.66 1.471 1.472 0 .562-.312 1.066-.813 1.317l-2.425 1.21 1.989.995c.77.385 1.249 1.158 1.249 2.02 0 .447-.131.88-.379 1.252l-1.156 1.734h-.465v-1.93c0-1.005-.499-1.938-1.336-2.496l-.664-.442c-.005-1.082-.608-2.055-1.578-2.539l-.975-.487-.895 1.789.975.487c.292.145.473.438.473.764 0 .47-.384.854-.854.854h-8.146c-1.654 0-3 1.346-3 3v1h-.382l-1.04-2.081c-.378-.756-.578-1.603-.578-2.447 0-3.017 2.455-5.472 5.472-5.472zm-4.472 12h1v2h-1c-.552 0-1-.448-1-1s.448-1 1-1zm-7 15v-18c0-.552.448-1 1-1h3.442c.1.278.215.55.347.813l.782 1.565c-.931.51-1.571 1.488-1.571 2.622 0 1.654 1.346 3 3 3h1.263c.595 2.298 2.183 4.193 4.282 5.204l-.326.978c-2.571.815-4.67 2.754-5.679 5.274l-.217.544h-5.323c-.552 0-1-.448-1-1zm43.85 4.808-.071.071c-.874.874-1.123 2.127-.65 3.27.473 1.141 1.534 1.851 2.77 1.851h.101v8h-.101c-1.236 0-2.298.71-2.771 1.852-.473 1.143-.224 2.396.65 3.27l.071.071-5.657 5.657-.071-.071c-.873-.873-2.126-1.122-3.27-.65-1.141.472-1.851 1.534-1.851 2.77v.101h-8v-.101c0-1.236-.71-2.299-1.852-2.771-1.144-.472-2.396-.223-3.27.65l-.071.071-5.657-5.657.071-.071c.874-.874 1.123-2.127.65-3.27-.473-1.141-1.534-1.851-2.77-1.851h-.101v-8h.101c1.236 0 2.298-.71 2.771-1.852.473-1.143.224-2.396-.65-3.27l-.071-.071 1.807-1.807h4.042v1.642c-2.54 2.445-4 5.822-4 9.358 0 7.168 5.832 13 13 13s13-5.832 13-13c0-3.535-1.46-6.913-4-9.359v-1.641h4.042zm14.15-4.808c0 .552-.448 1-1 1h-5.323l-.217-.543c-.406-1.014-.995-1.928-1.714-2.718 2.62-1.804 4.254-4.837 4.254-8.063v-6.676c0-.683-.071-1.348-.181-2h3.181c.552 0 1 .448 1 1z"/><circle cx="41" cy="13" r="1"/><circle cx="47" cy="13" r="1"/><path d="m46 16.764c-.381.762-1.147 1.236-2 1.236s-1.619-.474-2-1.236l-.105-.211-1.789.895.105.211c.722 1.444 2.174 2.341 3.789 2.341s3.067-.897 3.789-2.342l.105-.211-1.789-.895z"/></g></g></g></svg>